<?xml version="1.0" encoding="UTF-8" standalone="no"?>
<svg
   width="210mm"
   height="297mm"
   viewBox="0 0 210 297"
   version="1.1"
   id="svg1"
   inkscape:version="1.4 (86a8ad7, 2024-10-11)"
   sodipodi:docname="networkdrawings_acetate_Ecoli.svg"
   xml:space="preserve"
   inkscape:export-filename="networkdrawings_acetate_Pputida.png"
   inkscape:export-xdpi="96"
   inkscape:export-ydpi="96"
   xmlns:inkscape="http://www.inkscape.org/namespaces/inkscape"
   xmlns:sodipodi="http://sodipodi.sourceforge.net/DTD/sodipodi-0.dtd"
   xmlns="http://www.w3.org/2000/svg"
   xmlns:svg="http://www.w3.org/2000/svg"><sodipodi:namedview
     id="namedview1"
     pagecolor="#ffffff"
     bordercolor="#000000"
     borderopacity="0.25"
     inkscape:showpageshadow="2"
     inkscape:pageopacity="0.0"
     inkscape:pagecheckerboard="0"
     inkscape:deskcolor="#d1d1d1"
     inkscape:document-units="mm"
     inkscape:zoom="3.2176731"
     inkscape:cx="187.71329"
     inkscape:cy="185.22702"
     inkscape:window-width="2496"
     inkscape:window-height="1558"
     inkscape:window-x="-11"
     inkscape:window-y="-11"
     inkscape:window-maximized="1"
     inkscape:current-layer="g23" /><defs
     id="defs1"><inkscape:path-effect
       effect="bspline"
       id="path-effect17"
       is_visible="true"
       lpeversion="1.3"
       weight="33.333333"
       steps="2"
       helper_size="0"
       apply_no_weight="true"
       apply_with_weight="true"
       only_selected="false"
       uniform="false" /><inkscape:path-effect
       effect="bspline"
       id="path-effect16"
       is_visible="true"
       lpeversion="1.3"
       weight="33.333333"
       steps="2"
       helper_size="0"
       apply_no_weight="true"
       apply_with_weight="true"
       only_selected="false"
       uniform="false" /><inkscape:path-effect
       effect="bspline"
       id="path-effect15"
       is_visible="true"
       lpeversion="1.3"
       weight="33.333333"
       steps="2"
       helper_size="0"
       apply_no_weight="true"
       apply_with_weight="true"
       only_selected="false"
       uniform="false" /><marker
       style="overflow:visible"
       id="ArrowWide"
       refX="0"
       refY="0"
       orient="auto-start-reverse"
       inkscape:stockid="Wide arrow"
       markerWidth="1"
       markerHeight="1"
       viewBox="0 0 1 1"
       inkscape:isstock="true"
       inkscape:collect="always"
       preserveAspectRatio="xMidYMid"><path
         style="fill:none;stroke:context-stroke;stroke-width:1;stroke-linecap:butt"
         d="M 3,-3 0,0 3,3"
         transform="rotate(180,0.125,0)"
         sodipodi:nodetypes="ccc"
         id="path1" /></marker><rect
       x="331.39383"
       y="66.366669"
       width="52.251175"
       height="35.212971"
       id="rect30" /><marker
       style="overflow:visible"
       id="ArrowWide-0"
       refX="0"
       refY="0"
       orient="auto-start-reverse"
       inkscape:stockid="Wide arrow"
       markerWidth="1"
       markerHeight="1"
       viewBox="0 0 1 1"
       inkscape:isstock="true"
       inkscape:collect="always"
       preserveAspectRatio="xMidYMid"><path
         style="fill:none;stroke:context-stroke;stroke-width:1;stroke-linecap:butt"
         d="M 3,-3 0,0 3,3"
         transform="rotate(180,0.125,0)"
         sodipodi:nodetypes="ccc"
         id="path1-3" /></marker><marker
       style="overflow:visible"
       id="ArrowWide-0-5"
       refX="0"
       refY="0"
       orient="auto-start-reverse"
       inkscape:stockid="Wide arrow"
       markerWidth="1"
       markerHeight="1"
       viewBox="0 0 1 1"
       inkscape:isstock="true"
       inkscape:collect="always"
       preserveAspectRatio="xMidYMid"><path
         style="fill:none;stroke:context-stroke;stroke-width:1;stroke-linecap:butt"
         d="M 3,-3 0,0 3,3"
         transform="rotate(180,0.125,0)"
         sodipodi:nodetypes="ccc"
         id="path1-3-0" /></marker><marker
       style="overflow:visible"
       id="ArrowWide-0-3"
       refX="0"
       refY="0"
       orient="auto-start-reverse"
       inkscape:stockid="Wide arrow"
       markerWidth="1"
       markerHeight="1"
       viewBox="0 0 1 1"
       inkscape:isstock="true"
       inkscape:collect="always"
       preserveAspectRatio="xMidYMid"><path
         style="fill:none;stroke:context-stroke;stroke-width:1;stroke-linecap:butt"
         d="M 3,-3 0,0 3,3"
         transform="rotate(180,0.125,0)"
         sodipodi:nodetypes="ccc"
         id="path1-3-5" /></marker><style
       type="text/css"
       id="style1">*{stroke-linejoin: round; stroke-linecap: butt}</style><path
       id="m86a3d94d17"
       d="M 0 0  L 3.5 0  "
       style="stroke: #000000; stroke-width: 0.8" /><path
       id="DejaVuSans-2212"
       d="M 678 2272  L 4684 2272  L 4684 1741  L 678 1741  L 678 2272  z "
       transform="scale(0.015625)" /><path
       id="DejaVuSans-34"
       d="M 2419 4116  L 825 1625  L 2419 1625  L 2419 4116  z M 2253 4666  L 3047 4666  L 3047 1625  L 3713 1625  L 3713 1100  L 3047 1100  L 3047 0  L 2419 0  L 2419 1100  L 313 1100  L 313 1709  L 2253 4666  z "
       transform="scale(0.015625)" /><path
       id="DejaVuSans-30"
       d="M 2034 4250  Q 1547 4250 1301 3770  Q 1056 3291 1056 2328  Q 1056 1369 1301 889  Q 1547 409 2034 409  Q 2525 409 2770 889  Q 3016 1369 3016 2328  Q 3016 3291 2770 3770  Q 2525 4250 2034 4250  z M 2034 4750  Q 2819 4750 3233 4129  Q 3647 3509 3647 2328  Q 3647 1150 3233 529  Q 2819 -91 2034 -91  Q 1250 -91 836 529  Q 422 1150 422 2328  Q 422 3509 836 4129  Q 1250 4750 2034 4750  z "
       transform="scale(0.015625)" /><path
       id="DejaVuSans-33"
       d="M 2597 2516  Q 3050 2419 3304 2112  Q 3559 1806 3559 1356  Q 3559 666 3084 287  Q 2609 -91 1734 -91  Q 1441 -91 1130 -33  Q 819 25 488 141  L 488 750  Q 750 597 1062 519  Q 1375 441 1716 441  Q 2309 441 2620 675  Q 2931 909 2931 1356  Q 2931 1769 2642 2001  Q 2353 2234 1838 2234  L 1294 2234  L 1294 2753  L 1863 2753  Q 2328 2753 2575 2939  Q 2822 3125 2822 3475  Q 2822 3834 2567 4026  Q 2313 4219 1838 4219  Q 1578 4219 1281 4162  Q 984 4106 628 3988  L 628 4550  Q 988 4650 1302 4700  Q 1616 4750 1894 4750  Q 2613 4750 3031 4423  Q 3450 4097 3450 3541  Q 3450 3153 3228 2886  Q 3006 2619 2597 2516  z "
       transform="scale(0.015625)" /><path
       id="DejaVuSans-35"
       d="M 691 4666  L 3169 4666  L 3169 4134  L 1269 4134  L 1269 2991  Q 1406 3038 1543 3061  Q 1681 3084 1819 3084  Q 2600 3084 3056 2656  Q 3513 2228 3513 1497  Q 3513 744 3044 326  Q 2575 -91 1722 -91  Q 1428 -91 1123 -41  Q 819 9 494 109  L 494 744  Q 775 591 1075 516  Q 1375 441 1709 441  Q 2250 441 2565 725  Q 2881 1009 2881 1497  Q 2881 1984 2565 2268  Q 2250 2553 1709 2553  Q 1456 2553 1204 2497  Q 953 2441 691 2322  L 691 4666  z "
       transform="scale(0.015625)" /><path
       id="DejaVuSans-32"
       d="M 1228 531  L 3431 531  L 3431 0  L 469 0  L 469 531  Q 828 903 1448 1529  Q 2069 2156 2228 2338  Q 2531 2678 2651 2914  Q 2772 3150 2772 3378  Q 2772 3750 2511 3984  Q 2250 4219 1831 4219  Q 1534 4219 1204 4116  Q 875 4013 500 3803  L 500 4441  Q 881 4594 1212 4672  Q 1544 4750 1819 4750  Q 2544 4750 2975 4387  Q 3406 4025 3406 3419  Q 3406 3131 3298 2873  Q 3191 2616 2906 2266  Q 2828 2175 2409 1742  Q 1991 1309 1228 531  z "
       transform="scale(0.015625)" /><path
       id="DejaVuSans-31"
       d="M 794 531  L 1825 531  L 1825 4091  L 703 3866  L 703 4441  L 1819 4666  L 2450 4666  L 2450 531  L 3481 531  L 3481 0  L 794 0  L 794 531  z "
       transform="scale(0.015625)" /><path
       id="DejaVuSans-73"
       d="M 2834 3397  L 2834 2853  Q 2591 2978 2328 3040  Q 2066 3103 1784 3103  Q 1356 3103 1142 2972  Q 928 2841 928 2578  Q 928 2378 1081 2264  Q 1234 2150 1697 2047  L 1894 2003  Q 2506 1872 2764 1633  Q 3022 1394 3022 966  Q 3022 478 2636 193  Q 2250 -91 1575 -91  Q 1294 -91 989 -36  Q 684 19 347 128  L 347 722  Q 666 556 975 473  Q 1284 391 1588 391  Q 1994 391 2212 530  Q 2431 669 2431 922  Q 2431 1156 2273 1281  Q 2116 1406 1581 1522  L 1381 1569  Q 847 1681 609 1914  Q 372 2147 372 2553  Q 372 3047 722 3315  Q 1072 3584 1716 3584  Q 2034 3584 2315 3537  Q 2597 3491 2834 3397  z "
       transform="scale(0.015625)" /><path
       id="DejaVuSans-74"
       d="M 1172 4494  L 1172 3500  L 2356 3500  L 2356 3053  L 1172 3053  L 1172 1153  Q 1172 725 1289 603  Q 1406 481 1766 481  L 2356 481  L 2356 0  L 1766 0  Q 1100 0 847 248  Q 594 497 594 1153  L 594 3053  L 172 3053  L 172 3500  L 594 3500  L 594 4494  L 1172 4494  z "
       transform="scale(0.015625)" /><path
       id="DejaVuSans-6f"
       d="M 1959 3097  Q 1497 3097 1228 2736  Q 959 2375 959 1747  Q 959 1119 1226 758  Q 1494 397 1959 397  Q 2419 397 2687 759  Q 2956 1122 2956 1747  Q 2956 2369 2687 2733  Q 2419 3097 1959 3097  z M 1959 3584  Q 2709 3584 3137 3096  Q 3566 2609 3566 1747  Q 3566 888 3137 398  Q 2709 -91 1959 -91  Q 1206 -91 779 398  Q 353 888 353 1747  Q 353 2609 779 3096  Q 1206 3584 1959 3584  z "
       transform="scale(0.015625)" /><path
       id="DejaVuSans-69"
       d="M 603 3500  L 1178 3500  L 1178 0  L 603 0  L 603 3500  z M 603 4863  L 1178 4863  L 1178 4134  L 603 4134  L 603 4863  z "
       transform="scale(0.015625)" /><path
       id="DejaVuSans-63"
       d="M 3122 3366  L 3122 2828  Q 2878 2963 2633 3030  Q 2388 3097 2138 3097  Q 1578 3097 1268 2742  Q 959 2388 959 1747  Q 959 1106 1268 751  Q 1578 397 2138 397  Q 2388 397 2633 464  Q 2878 531 3122 666  L 3122 134  Q 2881 22 2623 -34  Q 2366 -91 2075 -91  Q 1284 -91 818 406  Q 353 903 353 1747  Q 353 2603 823 3093  Q 1294 3584 2113 3584  Q 2378 3584 2631 3529  Q 2884 3475 3122 3366  z "
       transform="scale(0.015625)" /><path
       id="DejaVuSans-68"
       d="M 3513 2113  L 3513 0  L 2938 0  L 2938 2094  Q 2938 2591 2744 2837  Q 2550 3084 2163 3084  Q 1697 3084 1428 2787  Q 1159 2491 1159 1978  L 1159 0  L 581 0  L 581 4863  L 1159 4863  L 1159 2956  Q 1366 3272 1645 3428  Q 1925 3584 2291 3584  Q 2894 3584 3203 3211  Q 3513 2838 3513 2113  z "
       transform="scale(0.015625)" /><path
       id="DejaVuSans-6d"
       d="M 3328 2828  Q 3544 3216 3844 3400  Q 4144 3584 4550 3584  Q 5097 3584 5394 3201  Q 5691 2819 5691 2113  L 5691 0  L 5113 0  L 5113 2094  Q 5113 2597 4934 2840  Q 4756 3084 4391 3084  Q 3944 3084 3684 2787  Q 3425 2491 3425 1978  L 3425 0  L 2847 0  L 2847 2094  Q 2847 2600 2669 2842  Q 2491 3084 2119 3084  Q 1678 3084 1418 2786  Q 1159 2488 1159 1978  L 1159 0  L 581 0  L 581 3500  L 1159 3500  L 1159 2956  Q 1356 3278 1631 3431  Q 1906 3584 2284 3584  Q 2666 3584 2933 3390  Q 3200 3197 3328 2828  z "
       transform="scale(0.015625)" /><path
       id="DejaVuSans-65"
       d="M 3597 1894  L 3597 1613  L 953 1613  Q 991 1019 1311 708  Q 1631 397 2203 397  Q 2534 397 2845 478  Q 3156 559 3463 722  L 3463 178  Q 3153 47 2828 -22  Q 2503 -91 2169 -91  Q 1331 -91 842 396  Q 353 884 353 1716  Q 353 2575 817 3079  Q 1281 3584 2069 3584  Q 2775 3584 3186 3129  Q 3597 2675 3597 1894  z M 3022 2063  Q 3016 2534 2758 2815  Q 2500 3097 2075 3097  Q 1594 3097 1305 2825  Q 1016 2553 972 2059  L 3022 2063  z "
       transform="scale(0.015625)" /><path
       id="DejaVuSans-72"
       d="M 2631 2963  Q 2534 3019 2420 3045  Q 2306 3072 2169 3072  Q 1681 3072 1420 2755  Q 1159 2438 1159 1844  L 1159 0  L 581 0  L 581 3500  L 1159 3500  L 1159 2956  Q 1341 3275 1631 3429  Q 1922 3584 2338 3584  Q 2397 3584 2469 3576  Q 2541 3569 2628 3553  L 2631 2963  z "
       transform="scale(0.015625)" /><path
       id="DejaVuSans-20"
       transform="scale(0.015625)" /><path
       id="DejaVuSans-66"
       d="M 2375 4863  L 2375 4384  L 1825 4384  Q 1516 4384 1395 4259  Q 1275 4134 1275 3809  L 1275 3500  L 2222 3500  L 2222 3053  L 1275 3053  L 1275 0  L 697 0  L 697 3053  L 147 3053  L 147 3500  L 697 3500  L 697 3744  Q 697 4328 969 4595  Q 1241 4863 1831 4863  L 2375 4863  z "
       transform="scale(0.015625)" /><path
       id="DejaVuSans-6e"
       d="M 3513 2113  L 3513 0  L 2938 0  L 2938 2094  Q 2938 2591 2744 2837  Q 2550 3084 2163 3084  Q 1697 3084 1428 2787  Q 1159 2491 1159 1978  L 1159 0  L 581 0  L 581 3500  L 1159 3500  L 1159 2956  Q 1366 3272 1645 3428  Q 1925 3584 2291 3584  Q 2894 3584 3203 3211  Q 3513 2838 3513 2113  z "
       transform="scale(0.015625)" /><style
       type="text/css"
       id="style1-1">*{stroke-linejoin: round; stroke-linecap: butt}</style><path
       id="m5e19cf6b20"
       d="M 0 0  L 3.5 0  "
       style="stroke: #000000; stroke-width: 0.8" /><path
       id="DejaVuSans-2212-9"
       d="M 678 2272  L 4684 2272  L 4684 1741  L 678 1741  L 678 2272  z "
       transform="scale(0.015625)" /><path
       id="DejaVuSans-34-8"
       d="M 2419 4116  L 825 1625  L 2419 1625  L 2419 4116  z M 2253 4666  L 3047 4666  L 3047 1625  L 3713 1625  L 3713 1100  L 3047 1100  L 3047 0  L 2419 0  L 2419 1100  L 313 1100  L 313 1709  L 2253 4666  z "
       transform="scale(0.015625)" /><path
       id="DejaVuSans-30-4"
       d="M 2034 4250  Q 1547 4250 1301 3770  Q 1056 3291 1056 2328  Q 1056 1369 1301 889  Q 1547 409 2034 409  Q 2525 409 2770 889  Q 3016 1369 3016 2328  Q 3016 3291 2770 3770  Q 2525 4250 2034 4250  z M 2034 4750  Q 2819 4750 3233 4129  Q 3647 3509 3647 2328  Q 3647 1150 3233 529  Q 2819 -91 2034 -91  Q 1250 -91 836 529  Q 422 1150 422 2328  Q 422 3509 836 4129  Q 1250 4750 2034 4750  z "
       transform="scale(0.015625)" /><path
       id="DejaVuSans-33-1"
       d="M 2597 2516  Q 3050 2419 3304 2112  Q 3559 1806 3559 1356  Q 3559 666 3084 287  Q 2609 -91 1734 -91  Q 1441 -91 1130 -33  Q 819 25 488 141  L 488 750  Q 750 597 1062 519  Q 1375 441 1716 441  Q 2309 441 2620 675  Q 2931 909 2931 1356  Q 2931 1769 2642 2001  Q 2353 2234 1838 2234  L 1294 2234  L 1294 2753  L 1863 2753  Q 2328 2753 2575 2939  Q 2822 3125 2822 3475  Q 2822 3834 2567 4026  Q 2313 4219 1838 4219  Q 1578 4219 1281 4162  Q 984 4106 628 3988  L 628 4550  Q 988 4650 1302 4700  Q 1616 4750 1894 4750  Q 2613 4750 3031 4423  Q 3450 4097 3450 3541  Q 3450 3153 3228 2886  Q 3006 2619 2597 2516  z "
       transform="scale(0.015625)" /><path
       id="DejaVuSans-35-4"
       d="M 691 4666  L 3169 4666  L 3169 4134  L 1269 4134  L 1269 2991  Q 1406 3038 1543 3061  Q 1681 3084 1819 3084  Q 2600 3084 3056 2656  Q 3513 2228 3513 1497  Q 3513 744 3044 326  Q 2575 -91 1722 -91  Q 1428 -91 1123 -41  Q 819 9 494 109  L 494 744  Q 775 591 1075 516  Q 1375 441 1709 441  Q 2250 441 2565 725  Q 2881 1009 2881 1497  Q 2881 1984 2565 2268  Q 2250 2553 1709 2553  Q 1456 2553 1204 2497  Q 953 2441 691 2322  L 691 4666  z "
       transform="scale(0.015625)" /><path
       id="DejaVuSans-32-3"
       d="M 1228 531  L 3431 531  L 3431 0  L 469 0  L 469 531  Q 828 903 1448 1529  Q 2069 2156 2228 2338  Q 2531 2678 2651 2914  Q 2772 3150 2772 3378  Q 2772 3750 2511 3984  Q 2250 4219 1831 4219  Q 1534 4219 1204 4116  Q 875 4013 500 3803  L 500 4441  Q 881 4594 1212 4672  Q 1544 4750 1819 4750  Q 2544 4750 2975 4387  Q 3406 4025 3406 3419  Q 3406 3131 3298 2873  Q 3191 2616 2906 2266  Q 2828 2175 2409 1742  Q 1991 1309 1228 531  z "
       transform="scale(0.015625)" /><path
       id="DejaVuSans-31-9"
       d="M 794 531  L 1825 531  L 1825 4091  L 703 3866  L 703 4441  L 1819 4666  L 2450 4666  L 2450 531  L 3481 531  L 3481 0  L 794 0  L 794 531  z "
       transform="scale(0.015625)" /><path
       id="DejaVuSans-73-8"
       d="M 2834 3397  L 2834 2853  Q 2591 2978 2328 3040  Q 2066 3103 1784 3103  Q 1356 3103 1142 2972  Q 928 2841 928 2578  Q 928 2378 1081 2264  Q 1234 2150 1697 2047  L 1894 2003  Q 2506 1872 2764 1633  Q 3022 1394 3022 966  Q 3022 478 2636 193  Q 2250 -91 1575 -91  Q 1294 -91 989 -36  Q 684 19 347 128  L 347 722  Q 666 556 975 473  Q 1284 391 1588 391  Q 1994 391 2212 530  Q 2431 669 2431 922  Q 2431 1156 2273 1281  Q 2116 1406 1581 1522  L 1381 1569  Q 847 1681 609 1914  Q 372 2147 372 2553  Q 372 3047 722 3315  Q 1072 3584 1716 3584  Q 2034 3584 2315 3537  Q 2597 3491 2834 3397  z "
       transform="scale(0.015625)" /><path
       id="DejaVuSans-74-7"
       d="M 1172 4494  L 1172 3500  L 2356 3500  L 2356 3053  L 1172 3053  L 1172 1153  Q 1172 725 1289 603  Q 1406 481 1766 481  L 2356 481  L 2356 0  L 1766 0  Q 1100 0 847 248  Q 594 497 594 1153  L 594 3053  L 172 3053  L 172 3500  L 594 3500  L 594 4494  L 1172 4494  z "
       transform="scale(0.015625)" /><path
       id="DejaVuSans-6f-7"
       d="M 1959 3097  Q 1497 3097 1228 2736  Q 959 2375 959 1747  Q 959 1119 1226 758  Q 1494 397 1959 397  Q 2419 397 2687 759  Q 2956 1122 2956 1747  Q 2956 2369 2687 2733  Q 2419 3097 1959 3097  z M 1959 3584  Q 2709 3584 3137 3096  Q 3566 2609 3566 1747  Q 3566 888 3137 398  Q 2709 -91 1959 -91  Q 1206 -91 779 398  Q 353 888 353 1747  Q 353 2609 779 3096  Q 1206 3584 1959 3584  z "
       transform="scale(0.015625)" /><path
       id="DejaVuSans-69-8"
       d="M 603 3500  L 1178 3500  L 1178 0  L 603 0  L 603 3500  z M 603 4863  L 1178 4863  L 1178 4134  L 603 4134  L 603 4863  z "
       transform="scale(0.015625)" /><path
       id="DejaVuSans-63-3"
       d="M 3122 3366  L 3122 2828  Q 2878 2963 2633 3030  Q 2388 3097 2138 3097  Q 1578 3097 1268 2742  Q 959 2388 959 1747  Q 959 1106 1268 751  Q 1578 397 2138 397  Q 2388 397 2633 464  Q 2878 531 3122 666  L 3122 134  Q 2881 22 2623 -34  Q 2366 -91 2075 -91  Q 1284 -91 818 406  Q 353 903 353 1747  Q 353 2603 823 3093  Q 1294 3584 2113 3584  Q 2378 3584 2631 3529  Q 2884 3475 3122 3366  z "
       transform="scale(0.015625)" /><path
       id="DejaVuSans-68-8"
       d="M 3513 2113  L 3513 0  L 2938 0  L 2938 2094  Q 2938 2591 2744 2837  Q 2550 3084 2163 3084  Q 1697 3084 1428 2787  Q 1159 2491 1159 1978  L 1159 0  L 581 0  L 581 4863  L 1159 4863  L 1159 2956  Q 1366 3272 1645 3428  Q 1925 3584 2291 3584  Q 2894 3584 3203 3211  Q 3513 2838 3513 2113  z "
       transform="scale(0.015625)" /><path
       id="DejaVuSans-6d-3"
       d="M 3328 2828  Q 3544 3216 3844 3400  Q 4144 3584 4550 3584  Q 5097 3584 5394 3201  Q 5691 2819 5691 2113  L 5691 0  L 5113 0  L 5113 2094  Q 5113 2597 4934 2840  Q 4756 3084 4391 3084  Q 3944 3084 3684 2787  Q 3425 2491 3425 1978  L 3425 0  L 2847 0  L 2847 2094  Q 2847 2600 2669 2842  Q 2491 3084 2119 3084  Q 1678 3084 1418 2786  Q 1159 2488 1159 1978  L 1159 0  L 581 0  L 581 3500  L 1159 3500  L 1159 2956  Q 1356 3278 1631 3431  Q 1906 3584 2284 3584  Q 2666 3584 2933 3390  Q 3200 3197 3328 2828  z "
       transform="scale(0.015625)" /><path
       id="DejaVuSans-65-7"
       d="M 3597 1894  L 3597 1613  L 953 1613  Q 991 1019 1311 708  Q 1631 397 2203 397  Q 2534 397 2845 478  Q 3156 559 3463 722  L 3463 178  Q 3153 47 2828 -22  Q 2503 -91 2169 -91  Q 1331 -91 842 396  Q 353 884 353 1716  Q 353 2575 817 3079  Q 1281 3584 2069 3584  Q 2775 3584 3186 3129  Q 3597 2675 3597 1894  z M 3022 2063  Q 3016 2534 2758 2815  Q 2500 3097 2075 3097  Q 1594 3097 1305 2825  Q 1016 2553 972 2059  L 3022 2063  z "
       transform="scale(0.015625)" /><path
       id="DejaVuSans-72-1"
       d="M 2631 2963  Q 2534 3019 2420 3045  Q 2306 3072 2169 3072  Q 1681 3072 1420 2755  Q 1159 2438 1159 1844  L 1159 0  L 581 0  L 581 3500  L 1159 3500  L 1159 2956  Q 1341 3275 1631 3429  Q 1922 3584 2338 3584  Q 2397 3584 2469 3576  Q 2541 3569 2628 3553  L 2631 2963  z "
       transform="scale(0.015625)" /><path
       id="DejaVuSans-20-0"
       transform="scale(0.015625)" /><path
       id="DejaVuSans-66-7"
       d="M 2375 4863  L 2375 4384  L 1825 4384  Q 1516 4384 1395 4259  Q 1275 4134 1275 3809  L 1275 3500  L 2222 3500  L 2222 3053  L 1275 3053  L 1275 0  L 697 0  L 697 3053  L 147 3053  L 147 3500  L 697 3500  L 697 3744  Q 697 4328 969 4595  Q 1241 4863 1831 4863  L 2375 4863  z "
       transform="scale(0.015625)" /><path
       id="DejaVuSans-6e-3"
       d="M 3513 2113  L 3513 0  L 2938 0  L 2938 2094  Q 2938 2591 2744 2837  Q 2550 3084 2163 3084  Q 1697 3084 1428 2787  Q 1159 2491 1159 1978  L 1159 0  L 581 0  L 581 3500  L 1159 3500  L 1159 2956  Q 1366 3272 1645 3428  Q 1925 3584 2291 3584  Q 2894 3584 3203 3211  Q 3513 2838 3513 2113  z "
       transform="scale(0.015625)" /><style
       type="text/css"
       id="style1-9">*{stroke-linejoin: round; stroke-linecap: butt}</style><path
       id="m58af573653"
       d="M 0 0  L 3.5 0  "
       style="stroke: #000000; stroke-width: 0.8" /><path
       id="DejaVuSans-2212-5"
       d="M 678 2272  L 4684 2272  L 4684 1741  L 678 1741  L 678 2272  z "
       transform="scale(0.015625)" /><path
       id="DejaVuSans-34-1"
       d="M 2419 4116  L 825 1625  L 2419 1625  L 2419 4116  z M 2253 4666  L 3047 4666  L 3047 1625  L 3713 1625  L 3713 1100  L 3047 1100  L 3047 0  L 2419 0  L 2419 1100  L 313 1100  L 313 1709  L 2253 4666  z "
       transform="scale(0.015625)" /><path
       id="DejaVuSans-30-0"
       d="M 2034 4250  Q 1547 4250 1301 3770  Q 1056 3291 1056 2328  Q 1056 1369 1301 889  Q 1547 409 2034 409  Q 2525 409 2770 889  Q 3016 1369 3016 2328  Q 3016 3291 2770 3770  Q 2525 4250 2034 4250  z M 2034 4750  Q 2819 4750 3233 4129  Q 3647 3509 3647 2328  Q 3647 1150 3233 529  Q 2819 -91 2034 -91  Q 1250 -91 836 529  Q 422 1150 422 2328  Q 422 3509 836 4129  Q 1250 4750 2034 4750  z "
       transform="scale(0.015625)" /><path
       id="DejaVuSans-33-9"
       d="M 2597 2516  Q 3050 2419 3304 2112  Q 3559 1806 3559 1356  Q 3559 666 3084 287  Q 2609 -91 1734 -91  Q 1441 -91 1130 -33  Q 819 25 488 141  L 488 750  Q 750 597 1062 519  Q 1375 441 1716 441  Q 2309 441 2620 675  Q 2931 909 2931 1356  Q 2931 1769 2642 2001  Q 2353 2234 1838 2234  L 1294 2234  L 1294 2753  L 1863 2753  Q 2328 2753 2575 2939  Q 2822 3125 2822 3475  Q 2822 3834 2567 4026  Q 2313 4219 1838 4219  Q 1578 4219 1281 4162  Q 984 4106 628 3988  L 628 4550  Q 988 4650 1302 4700  Q 1616 4750 1894 4750  Q 2613 4750 3031 4423  Q 3450 4097 3450 3541  Q 3450 3153 3228 2886  Q 3006 2619 2597 2516  z "
       transform="scale(0.015625)" /><path
       id="DejaVuSans-35-9"
       d="M 691 4666  L 3169 4666  L 3169 4134  L 1269 4134  L 1269 2991  Q 1406 3038 1543 3061  Q 1681 3084 1819 3084  Q 2600 3084 3056 2656  Q 3513 2228 3513 1497  Q 3513 744 3044 326  Q 2575 -91 1722 -91  Q 1428 -91 1123 -41  Q 819 9 494 109  L 494 744  Q 775 591 1075 516  Q 1375 441 1709 441  Q 2250 441 2565 725  Q 2881 1009 2881 1497  Q 2881 1984 2565 2268  Q 2250 2553 1709 2553  Q 1456 2553 1204 2497  Q 953 2441 691 2322  L 691 4666  z "
       transform="scale(0.015625)" /><path
       id="DejaVuSans-32-6"
       d="M 1228 531  L 3431 531  L 3431 0  L 469 0  L 469 531  Q 828 903 1448 1529  Q 2069 2156 2228 2338  Q 2531 2678 2651 2914  Q 2772 3150 2772 3378  Q 2772 3750 2511 3984  Q 2250 4219 1831 4219  Q 1534 4219 1204 4116  Q 875 4013 500 3803  L 500 4441  Q 881 4594 1212 4672  Q 1544 4750 1819 4750  Q 2544 4750 2975 4387  Q 3406 4025 3406 3419  Q 3406 3131 3298 2873  Q 3191 2616 2906 2266  Q 2828 2175 2409 1742  Q 1991 1309 1228 531  z "
       transform="scale(0.015625)" /><path
       id="DejaVuSans-31-8"
       d="M 794 531  L 1825 531  L 1825 4091  L 703 3866  L 703 4441  L 1819 4666  L 2450 4666  L 2450 531  L 3481 531  L 3481 0  L 794 0  L 794 531  z "
       transform="scale(0.015625)" /><path
       id="DejaVuSans-73-84"
       d="M 2834 3397  L 2834 2853  Q 2591 2978 2328 3040  Q 2066 3103 1784 3103  Q 1356 3103 1142 2972  Q 928 2841 928 2578  Q 928 2378 1081 2264  Q 1234 2150 1697 2047  L 1894 2003  Q 2506 1872 2764 1633  Q 3022 1394 3022 966  Q 3022 478 2636 193  Q 2250 -91 1575 -91  Q 1294 -91 989 -36  Q 684 19 347 128  L 347 722  Q 666 556 975 473  Q 1284 391 1588 391  Q 1994 391 2212 530  Q 2431 669 2431 922  Q 2431 1156 2273 1281  Q 2116 1406 1581 1522  L 1381 1569  Q 847 1681 609 1914  Q 372 2147 372 2553  Q 372 3047 722 3315  Q 1072 3584 1716 3584  Q 2034 3584 2315 3537  Q 2597 3491 2834 3397  z "
       transform="scale(0.015625)" /><path
       id="DejaVuSans-74-9"
       d="M 1172 4494  L 1172 3500  L 2356 3500  L 2356 3053  L 1172 3053  L 1172 1153  Q 1172 725 1289 603  Q 1406 481 1766 481  L 2356 481  L 2356 0  L 1766 0  Q 1100 0 847 248  Q 594 497 594 1153  L 594 3053  L 172 3053  L 172 3500  L 594 3500  L 594 4494  L 1172 4494  z "
       transform="scale(0.015625)" /><path
       id="DejaVuSans-6f-9"
       d="M 1959 3097  Q 1497 3097 1228 2736  Q 959 2375 959 1747  Q 959 1119 1226 758  Q 1494 397 1959 397  Q 2419 397 2687 759  Q 2956 1122 2956 1747  Q 2956 2369 2687 2733  Q 2419 3097 1959 3097  z M 1959 3584  Q 2709 3584 3137 3096  Q 3566 2609 3566 1747  Q 3566 888 3137 398  Q 2709 -91 1959 -91  Q 1206 -91 779 398  Q 353 888 353 1747  Q 353 2609 779 3096  Q 1206 3584 1959 3584  z "
       transform="scale(0.015625)" /><path
       id="DejaVuSans-69-2"
       d="M 603 3500  L 1178 3500  L 1178 0  L 603 0  L 603 3500  z M 603 4863  L 1178 4863  L 1178 4134  L 603 4134  L 603 4863  z "
       transform="scale(0.015625)" /><path
       id="DejaVuSans-63-5"
       d="M 3122 3366  L 3122 2828  Q 2878 2963 2633 3030  Q 2388 3097 2138 3097  Q 1578 3097 1268 2742  Q 959 2388 959 1747  Q 959 1106 1268 751  Q 1578 397 2138 397  Q 2388 397 2633 464  Q 2878 531 3122 666  L 3122 134  Q 2881 22 2623 -34  Q 2366 -91 2075 -91  Q 1284 -91 818 406  Q 353 903 353 1747  Q 353 2603 823 3093  Q 1294 3584 2113 3584  Q 2378 3584 2631 3529  Q 2884 3475 3122 3366  z "
       transform="scale(0.015625)" /><path
       id="DejaVuSans-68-5"
       d="M 3513 2113  L 3513 0  L 2938 0  L 2938 2094  Q 2938 2591 2744 2837  Q 2550 3084 2163 3084  Q 1697 3084 1428 2787  Q 1159 2491 1159 1978  L 1159 0  L 581 0  L 581 4863  L 1159 4863  L 1159 2956  Q 1366 3272 1645 3428  Q 1925 3584 2291 3584  Q 2894 3584 3203 3211  Q 3513 2838 3513 2113  z "
       transform="scale(0.015625)" /><path
       id="DejaVuSans-6d-33"
       d="M 3328 2828  Q 3544 3216 3844 3400  Q 4144 3584 4550 3584  Q 5097 3584 5394 3201  Q 5691 2819 5691 2113  L 5691 0  L 5113 0  L 5113 2094  Q 5113 2597 4934 2840  Q 4756 3084 4391 3084  Q 3944 3084 3684 2787  Q 3425 2491 3425 1978  L 3425 0  L 2847 0  L 2847 2094  Q 2847 2600 2669 2842  Q 2491 3084 2119 3084  Q 1678 3084 1418 2786  Q 1159 2488 1159 1978  L 1159 0  L 581 0  L 581 3500  L 1159 3500  L 1159 2956  Q 1356 3278 1631 3431  Q 1906 3584 2284 3584  Q 2666 3584 2933 3390  Q 3200 3197 3328 2828  z "
       transform="scale(0.015625)" /><path
       id="DejaVuSans-65-3"
       d="M 3597 1894  L 3597 1613  L 953 1613  Q 991 1019 1311 708  Q 1631 397 2203 397  Q 2534 397 2845 478  Q 3156 559 3463 722  L 3463 178  Q 3153 47 2828 -22  Q 2503 -91 2169 -91  Q 1331 -91 842 396  Q 353 884 353 1716  Q 353 2575 817 3079  Q 1281 3584 2069 3584  Q 2775 3584 3186 3129  Q 3597 2675 3597 1894  z M 3022 2063  Q 3016 2534 2758 2815  Q 2500 3097 2075 3097  Q 1594 3097 1305 2825  Q 1016 2553 972 2059  L 3022 2063  z "
       transform="scale(0.015625)" /><path
       id="DejaVuSans-72-7"
       d="M 2631 2963  Q 2534 3019 2420 3045  Q 2306 3072 2169 3072  Q 1681 3072 1420 2755  Q 1159 2438 1159 1844  L 1159 0  L 581 0  L 581 3500  L 1159 3500  L 1159 2956  Q 1341 3275 1631 3429  Q 1922 3584 2338 3584  Q 2397 3584 2469 3576  Q 2541 3569 2628 3553  L 2631 2963  z "
       transform="scale(0.015625)" /><path
       id="DejaVuSans-20-4"
       transform="scale(0.015625)" /><path
       id="DejaVuSans-66-3"
       d="M 2375 4863  L 2375 4384  L 1825 4384  Q 1516 4384 1395 4259  Q 1275 4134 1275 3809  L 1275 3500  L 2222 3500  L 2222 3053  L 1275 3053  L 1275 0  L 697 0  L 697 3053  L 147 3053  L 147 3500  L 697 3500  L 697 3744  Q 697 4328 969 4595  Q 1241 4863 1831 4863  L 2375 4863  z "
       transform="scale(0.015625)" /><path
       id="DejaVuSans-6e-8"
       d="M 3513 2113  L 3513 0  L 2938 0  L 2938 2094  Q 2938 2591 2744 2837  Q 2550 3084 2163 3084  Q 1697 3084 1428 2787  Q 1159 2491 1159 1978  L 1159 0  L 581 0  L 581 3500  L 1159 3500  L 1159 2956  Q 1366 3272 1645 3428  Q 1925 3584 2291 3584  Q 2894 3584 3203 3211  Q 3513 2838 3513 2113  z "
       transform="scale(0.015625)" /></defs><g
     inkscape:label="Layer 1"
     inkscape:groupmode="layer"
     id="layer1"><rect
       style="fill:none;fill-opacity:1;stroke:#808080;stroke-width:0.221164;stroke-linecap:butt;stroke-linejoin:round;stroke-dasharray:none;stroke-opacity:1"
       id="rect33"
       width="16.440466"
       height="32.856262"
       x="78.07132"
       y="4.1243396" /><rect
       style="fill:#083674;fill-opacity:1;stroke:#000000;stroke-width:0.265;stroke-linecap:butt;stroke-linejoin:round;stroke-dasharray:none;stroke-opacity:1"
       id="r_akg"
       width="25.9674"
       height="4.6869559"
       x="26.933979"
       y="79.226593"
       inkscape:label="r_akg" /><rect
       style="fill:#08306b;fill-opacity:1;stroke:#000000;stroke-width:0.265;stroke-linecap:butt;stroke-linejoin:round;stroke-dasharray:none;stroke-opacity:1"
       id="r_succoa"
       width="11.79964"
       height="4.8226418"
       x="49.222347"
       y="86.671745"
       inkscape:label="r_succoa" /><rect
       style="fill:#083877;fill-opacity:1;stroke:#000000;stroke-width:0.265;stroke-linecap:butt;stroke-linejoin:round;stroke-dasharray:none;stroke-opacity:1"
       id="r_oaa"
       width="22.046"
       height="4.7193179"
       x="61.547031"
       y="38.135666"
       inkscape:label="r_oaa" /><rect
       style="fill:#08478d;fill-opacity:1;stroke:#000000;stroke-width:0.278435;stroke-linecap:butt;stroke-linejoin:round;stroke-opacity:1"
       id="r_accoa"
       width="10.594"
       height="4.8376093"
       x="52.564594"
       y="22.064966"
       inkscape:label="r_accoa" /><text
       xml:space="preserve"
       style="font-size:3.175px;text-align:start;writing-mode:lr-tb;direction:ltr;text-anchor:start;fill:#000000;stroke:none;stroke-width:0.264999"
       x="51.835014"
       y="13.900569"
       id="text1"><tspan
         sodipodi:role="line"
         id="tspan1"
         style="fill:#000000;stroke:none;stroke-width:0.265"
         x="51.835014"
         y="13.900569">acetate</tspan></text><path
       style="fill:none;fill-opacity:1;stroke:#000000;stroke-width:0.264999;stroke-linecap:butt;stroke-linejoin:round;stroke-dasharray:none;stroke-opacity:1;marker-end:url(#ArrowWide)"
       d="m 57.71596,14.745232 v 6.279562"
       id="path20" /><text
       xml:space="preserve"
       style="font-size:3.175px;text-align:start;writing-mode:lr-tb;direction:ltr;text-anchor:start;fill:#ffffff;stroke:none;stroke-width:0.264999"
       x="53.605839"
       y="25.216295"
       id="t_accoa"><tspan
         sodipodi:role="line"
         id="tspan2"
         style="stroke-width:0.265"
         x="53.605839"
         y="25.216295">accoa</tspan></text><text
       xml:space="preserve"
       style="font-size:3.175px;text-align:start;writing-mode:lr-tb;direction:ltr;text-anchor:start;fill:#000000;stroke:none;stroke-width:0.264999"
       x="38.956539"
       y="40.351994"
       id="text3"><tspan
         sodipodi:role="line"
         id="tspan3"
         style="stroke-width:0.265"
         x="38.956539"
         y="40.351994">citrate</tspan></text><text
       xml:space="preserve"
       style="font-size:3.175px;text-align:start;writing-mode:lr-tb;direction:ltr;text-anchor:start;fill:#000000;stroke:none;stroke-width:0.264999"
       x="25.292679"
       y="52.271534"
       id="text4"><tspan
         sodipodi:role="line"
         id="tspan4"
         style="stroke-width:0.265"
         x="25.292679"
         y="52.271534">aconitate</tspan></text><text
       xml:space="preserve"
       style="font-size:3.175px;text-align:start;writing-mode:lr-tb;direction:ltr;text-anchor:start;fill:#ffffff;stroke:none;stroke-width:0.264999"
       x="24.187939"
       y="68.610023"
       id="t_icit"><tspan
         sodipodi:role="line"
         id="tspan5"
         style="stroke-width:0.265"
         x="24.187939"
         y="68.610023">isocitrate</tspan></text><text
       xml:space="preserve"
       style="font-size:3.175px;text-align:start;writing-mode:lr-tb;direction:ltr;text-anchor:start;fill:#000000;stroke:none;stroke-width:0.264999"
       x="19.948853"
       y="78.881874"
       id="text6"><tspan
         sodipodi:role="line"
         id="tspan6"
         style="stroke-width:0.265"
         x="19.948853"
         y="78.881874">CO<tspan
   style="font-size:65%;baseline-shift:sub"
   id="tspan7">2</tspan></tspan></text><text
       xml:space="preserve"
       style="font-size:3.175px;text-align:start;writing-mode:lr-tb;direction:ltr;text-anchor:start;fill:#000000;stroke:none;stroke-width:0.264999"
       x="39.59721"
       y="93.888161"
       id="text6-8"><tspan
         sodipodi:role="line"
         id="tspan6-4"
         style="stroke-width:0.265"
         x="39.59721"
         y="93.888161">CO<tspan
   style="font-size:65%;baseline-shift:sub"
   id="tspan7-9">2</tspan></tspan></text><text
       xml:space="preserve"
       style="font-size:3.175px;text-align:start;writing-mode:lr-tb;direction:ltr;text-anchor:start;fill:#ffffff;stroke:none;stroke-width:0.264999"
       x="27.560293"
       y="82.448311"
       id="t_akg"><tspan
         sodipodi:role="line"
         id="tspan14"
         x="27.560293"
         y="82.448311">α-ketoglutarate</tspan></text><text
       xml:space="preserve"
       style="font-size:3.175px;text-align:start;writing-mode:lr-tb;direction:ltr;text-anchor:start;fill:#ffffff;stroke:none;stroke-width:0.264999"
       x="49.771332"
       y="89.948906"
       id="t_succoa"><tspan
         sodipodi:role="line"
         id="tspan9"
         style="stroke-width:0.265"
         x="49.771332"
         y="89.948906">succoa</tspan></text><text
       xml:space="preserve"
       style="font-size:3.175px;text-align:start;writing-mode:lr-tb;direction:ltr;text-anchor:start;fill:#000000;stroke:none;stroke-width:0.264999"
       x="67.854156"
       y="84.832222"
       id="text10"><tspan
         sodipodi:role="line"
         id="tspan10"
         style="stroke-width:0.265"
         x="67.854156"
         y="84.832222">succinate</tspan></text><text
       xml:space="preserve"
       style="font-size:3.175px;text-align:start;writing-mode:lr-tb;direction:ltr;text-anchor:start;fill:#000000;stroke:none;stroke-width:0.264999"
       x="76.285042"
       y="70.296204"
       id="text11"><tspan
         sodipodi:role="line"
         id="tspan11"
         style="stroke-width:0.265"
         x="76.285042"
         y="70.296204">fumarate</tspan></text><text
       xml:space="preserve"
       style="font-size:3.175px;text-align:start;writing-mode:lr-tb;direction:ltr;text-anchor:start;fill:#000000;stroke:none;stroke-width:0.264999"
       x="76.343185"
       y="54.53915"
       id="text12"><tspan
         sodipodi:role="line"
         id="tspan12"
         style="stroke-width:0.265"
         x="76.343185"
         y="54.53915">malate</tspan></text><text
       xml:space="preserve"
       style="font-size:3.175px;text-align:start;writing-mode:lr-tb;direction:ltr;text-anchor:start;fill:#ffffff;stroke:none;stroke-width:0.264999"
       x="62.448944"
       y="41.677422"
       id="t_oaa"><tspan
         sodipodi:role="line"
         id="tspan13"
         style="stroke-width:0.265"
         x="62.448944"
         y="41.677422">oxaloacetate</tspan></text><path
       style="fill:none;stroke:#000000;stroke-width:0.264999;marker-start:url(#ArrowWide)"
       id="path14"
       sodipodi:type="arc"
       sodipodi:cx="56.603271"
       sodipodi:cy="62.940971"
       sodipodi:rx="27"
       sodipodi:ry="27"
       sodipodi:start="4.3633231"
       sodipodi:end="5.2359878"
       sodipodi:arc-type="arc"
       d="m 47.368727,37.569271 a 27,27 0 0 1 22.734546,1.989015"
       sodipodi:open="true" /><path
       style="fill:none;stroke:#000000;stroke-width:0.264999;marker-start:url(#ArrowWide)"
       id="path14-5"
       sodipodi:type="arc"
       sodipodi:cx="56.437328"
       sodipodi:cy="62.981911"
       sodipodi:rx="27"
       sodipodi:ry="27"
       sodipodi:start="5.4628806"
       sodipodi:end="5.846853"
       sodipodi:arc-type="arc"
       d="m 74.851285,43.235362 a 27,27 0 0 1 6.056354,8.335856"
       sodipodi:open="true" /><path
       style="fill:none;stroke:#000000;stroke-width:0.264999;marker-start:url(#ArrowWide)"
       id="path14-5-9"
       sodipodi:type="arc"
       sodipodi:cx="56.615322"
       sodipodi:cy="63.120693"
       sodipodi:rx="27"
       sodipodi:ry="27"
       sodipodi:start="6.0213859"
       sodipodi:end="0.17453293"
       sodipodi:arc-type="arc"
       d="m 82.695319,56.132578 a 27,27 0 0 1 0.509812,11.676616"
       sodipodi:open="true" /><path
       style="fill:none;stroke:#000000;stroke-width:0.264999;marker-start:url(#ArrowWide)"
       id="path14-5-9-2"
       sodipodi:type="arc"
       sodipodi:cx="56.713722"
       sodipodi:cy="63.133228"
       sodipodi:rx="27"
       sodipodi:ry="27"
       sodipodi:start="0.34906585"
       sodipodi:end="0.78539816"
       sodipodi:arc-type="arc"
       d="m 82.085423,72.367772 a 27,27 0 0 1 -6.279818,9.857339"
       sodipodi:open="true" /><path
       style="fill:none;stroke:#000000;stroke-width:0.264999;marker-start:url(#ArrowWide)"
       id="path14-5-9-2-6"
       sodipodi:type="arc"
       sodipodi:cx="56.710514"
       sodipodi:cy="63.053764"
       sodipodi:rx="27"
       sodipodi:ry="27"
       sodipodi:start="0.95993109"
       sodipodi:end="1.3962634"
       sodipodi:arc-type="arc"
       d="M 72.197078,85.17087 A 27,27 0 0 1 61.399015,89.643574"
       sodipodi:open="true" /><path
       style="fill:none;stroke:#000000;stroke-width:0.264999;marker-start:url(#ArrowWide)"
       id="path14-8"
       sodipodi:type="arc"
       sodipodi:cx="56.654346"
       sodipodi:cy="62.85482"
       sodipodi:rx="27"
       sodipodi:ry="27"
       sodipodi:start="3.6651914"
       sodipodi:end="4.1015237"
       sodipodi:arc-type="arc"
       d="m 33.27166,49.354821 a 27,27 0 0 1 7.896122,-8.617105"
       sodipodi:open="true" /><path
       style="fill:none;stroke:#000000;stroke-width:0.264999;marker-start:url(#ArrowWide)"
       id="path14-8-1"
       sodipodi:type="arc"
       sodipodi:cx="56.609283"
       sodipodi:cy="62.769169"
       sodipodi:rx="27"
       sodipodi:ry="27"
       sodipodi:start="3.1066861"
       sodipodi:end="3.4906585"
       sodipodi:arc-type="arc"
       d="M 29.625731,63.711454 A 27,27 0 0 1 31.237583,53.534625"
       sodipodi:open="true" /><path
       style="fill:none;stroke:#000000;stroke-width:0.264999;marker-start:url(#ArrowWide)"
       id="path14-8-1-8"
       sodipodi:type="arc"
       sodipodi:cx="56.549206"
       sodipodi:cy="62.664223"
       sodipodi:rx="27"
       sodipodi:ry="27"
       sodipodi:start="2.4958208"
       sodipodi:end="2.8797933"
       sodipodi:arc-type="arc"
       d="m 34.986048,78.913229 a 27,27 0 0 1 -4.51684,-9.260893"
       sodipodi:open="true" /><path
       style="fill:none;stroke:#000000;stroke-width:0.264999;marker-start:url(#ArrowWide)"
       id="path14-8-1-8-6"
       sodipodi:type="arc"
       sodipodi:cx="56.539043"
       sodipodi:cy="62.710011"
       sodipodi:rx="27"
       sodipodi:ry="27"
       sodipodi:start="1.8849556"
       sodipodi:end="2.268928"
       sodipodi:arc-type="arc"
       d="M 48.195584,88.388536 A 27,27 0 0 1 39.183779,83.393211"
       sodipodi:open="true" /><path
       style="fill:none;stroke:#000000;stroke-width:0.264999"
       d="m 57.737078,27.705658 c 0,2.73277 0,5.465543 -0.702588,6.865848 -0.702588,1.400304 -2.10771,1.468137 -3.512857,1.535972"
       id="path15"
       inkscape:path-effect="#path-effect15"
       inkscape:original-d="m 57.737078,27.705658 c 0,2.73277 0,5.465543 0,8.198316 -1.405176,0.06784 -2.810298,0.13567 -4.215445,0.203504" /><path
       style="fill:none;stroke:#000000;stroke-width:0.264999;marker-end:url(#ArrowWide)"
       d="m 31.431714,72.545791 c 0.397436,0.883952 0.794872,1.767906 -0.04799,2.627883 -0.842859,0.859978 -2.925931,1.695948 -5.009045,2.531934"
       id="path16"
       inkscape:path-effect="#path-effect16"
       inkscape:original-d="m 31.431714,72.545791 c 0.397436,0.883952 0.794872,1.767906 1.192308,2.651858 -2.083155,0.836004 -4.166227,1.671973 -6.249341,2.507959" /><path
       style="fill:none;stroke:#000000;stroke-width:0.264999;marker-end:url(#ArrowWide)"
       d="m 41.422433,85.065028 c 0.69894,0.431698 1.397879,0.863396 1.689102,1.771345 0.291224,0.90795 0.174736,2.292096 0.05825,3.676269"
       id="path17"
       inkscape:path-effect="#path-effect17"
       inkscape:original-d="m 41.422433,85.065028 c 0.698939,0.431699 1.397879,0.863396 2.096818,1.295093 -0.116491,1.384202 -0.232979,2.768348 -0.34947,4.152521" /><rect
       style="fill:none;fill-opacity:1;stroke:#cccccc;stroke-width:2.265;stroke-linecap:butt;stroke-linejoin:round;stroke-dasharray:none;stroke-opacity:1"
       id="rect29"
       width="81.779434"
       height="96.089378"
       x="13.992533"
       y="3.3419735"
       rx="6.4164062" /><g
       id="g20"
       transform="translate(-0.03513336,-0.44181868)"><rect
         style="fill:#6aaed6;fill-opacity:1;stroke:#000000;stroke-width:0.283774;stroke-linecap:butt;stroke-linejoin:round;stroke-opacity:1"
         id="r_nadh"
         width="11.015911"
         height="4.8322701"
         x="79.530693"
         y="26.076614"
         inkscape:label="r_nadh" /><text
         xml:space="preserve"
         style="font-size:3.175px;text-align:start;writing-mode:lr-tb;direction:ltr;text-anchor:start;fill:#000000;stroke-width:0.264583;stroke-linecap:butt;stroke-linejoin:round"
         x="80.349785"
         y="29.646942"
         id="t_nadh"
         inkscape:label="t_nadh"><tspan
           sodipodi:role="line"
           id="tspan15"
           style="stroke-width:0.264583"
           x="80.349785"
           y="29.646942">NADH</tspan></text></g><g
       id="g32"
       transform="translate(-8.8842778,-22.716311)"
       style="stroke-linecap:butt;stroke-linejoin:round" /><g
       id="g33"
       transform="translate(-8.6542666,-36.546755)"
       style="stroke-linecap:butt;stroke-linejoin:round"><rect
         style="fill:#f7fbff;fill-opacity:1;stroke:#000000;stroke-width:0.242819;stroke-linecap:butt;stroke-linejoin:round;stroke-opacity:1"
         id="r_atp"
         width="7.9978957"
         height="4.8732252"
         x="88.129349"
         y="51.249046"
         inkscape:label="r_atp" /><text
         xml:space="preserve"
         style="font-size:3.175px;text-align:start;writing-mode:lr-tb;direction:ltr;text-anchor:start;fill:#000000;stroke-width:0.264583;stroke-linecap:butt;stroke-linejoin:round"
         x="89.227699"
         y="54.839851"
         id="t_atp"
         inkscape:label="t_atp"><tspan
           sodipodi:role="line"
           id="tspan17"
           style="stroke-width:0.264583"
           x="89.227699"
           y="54.839851">ATP</tspan></text></g><text
       xml:space="preserve"
       transform="matrix(0.26458333,0,0,0.26458333,-8.2029211,-10.913061)"
       id="text30"
       style="text-align:start;writing-mode:lr-tb;direction:ltr;white-space:pre;shape-inside:url(#rect30);display:inline;fill:#000000;fill-opacity:1;stroke:none;stroke-width:1.00157;stroke-linecap:butt;stroke-linejoin:round;stroke-dasharray:none;stroke-opacity:1"><tspan
         x="331.39453"
         y="77.315151"
         id="tspan21">energy </tspan><tspan
         x="331.39453"
         y="92.315151"
         id="tspan22">carriers</tspan></text><path
       style="fill:none;fill-opacity:1;stroke:#000000;stroke-width:0.265;stroke-linecap:butt;stroke-linejoin:round;stroke-dasharray:none;stroke-opacity:1;marker-end:url(#ArrowWide-0)"
       d="M 57.625809,1.8969391 V 10.523747"
       id="path20-0" /><path
       style="fill:none;fill-opacity:1;stroke:#000000;stroke-width:0.265;stroke-linecap:butt;stroke-linejoin:round;stroke-dasharray:none;stroke-opacity:1;marker-end:url(#ArrowWide-0-5)"
       d="m 42.250885,94.616078 v 8.626812"
       id="path20-0-4" /><path
       style="fill:none;fill-opacity:1;stroke:#000000;stroke-width:0.265;stroke-linecap:butt;stroke-linejoin:round;stroke-dasharray:none;stroke-opacity:1;marker-end:url(#ArrowWide-0-3)"
       d="M 19.341729,77.661575 H 10.714921"
       id="path20-0-2" /><g
       id="g23"
       transform="translate(0.74693643)"><rect
         style="fill:#6aaed6;fill-opacity:1;stroke:#000000;stroke-width:0.295698;stroke-linecap:butt;stroke-linejoin:round;stroke-opacity:1"
         id="r_fadh2"
         width="11.990725"
         height="4.8203459"
         x="78.754585"
         y="31.096771"
         inkscape:label="r_fadh2" /><text
         xml:space="preserve"
         style="font-size:3.175px;text-align:start;writing-mode:lr-tb;direction:ltr;text-anchor:start;fill:#ffffff;fill-opacity:1;stroke:none;stroke-width:0.264999"
         x="79.884613"
         y="34.661137"
         id="t_fadh2"><tspan
           sodipodi:role="line"
           id="tspan16"
           style="fill:#ffffff;fill-opacity:1;stroke:none;stroke-width:0.265"
           x="79.884613"
           y="34.661137">FADH<tspan
   style="font-size:65%;baseline-shift:sub;fill:#ffffff"
   id="tspan20">2</tspan></tspan></text></g><g
       id="g19"
       transform="translate(0.16046487,-0.43820517)"><rect
         style="fill:#6aaed6;fill-opacity:1;stroke:#000000;stroke-width:0.295698;stroke-linecap:butt;stroke-linejoin:round;stroke-opacity:1"
         id="r_nadph"
         width="11.990725"
         height="4.8203459"
         x="79.341057"
         y="20.62295"
         inkscape:label="r_nadph" /><text
         xml:space="preserve"
         style="font-size:3.175px;text-align:start;writing-mode:lr-tb;direction:ltr;text-anchor:start;fill:#000000;fill-opacity:1;stroke:none;stroke-width:0.264999"
         x="79.690254"
         y="24.187315"
         id="t_nadph"><tspan
           sodipodi:role="line"
           id="tspan18"
           style="fill:#000000;fill-opacity:1;stroke:none;stroke-width:0.265"
           x="79.690254"
           y="24.187315">NADPH</tspan></text></g></g></svg>
